<?xml version="1.0" encoding="UTF-8"?>
<svg xmlns="http://www.w3.org/2000/svg" width="298" height="78" viewBox="0 0 298 78" fill="none">
  <g clip-path="url(#clip0_617_6897)">
    <path d="M231.737 7.8199C231.687 7.5899 232.057 7.3699 230.297 9.5799C238.317 28.1299 246.327 46.6899 254.347 65.2399C265.827 44.0599 281.987 31.6899 297.317 19.5799C277.177 22.0999 257.967 39.5999 253.257 50.1999L233.467 7.3999C232.037 8.1499 231.777 7.9799 231.737 7.8199Z" fill="url(#paint0_linear_617_6897)"></path>
    <path d="M217.573 0.449785C217.523 0.219785 217.893 -0.000214815 216.133 2.20979C224.153 20.7598 232.163 39.3198 240.183 57.8698C251.663 36.6898 267.823 24.3198 283.153 12.2098C263.013 14.7298 243.803 32.2298 239.093 42.8298L219.293 0.0297852C217.863 0.779785 217.603 0.619785 217.573 0.449785Z" fill="url(#paint1_linear_617_6897)"></path>
    <path d="M10.6038 19.2002C9.11375 19.2002 7.76375 18.6402 6.70375 17.5902C5.64375 16.5302 5.09375 15.1902 5.09375 13.6902C5.09375 12.2002 5.65375 10.8502 6.70375 9.79018C7.76375 8.73018 9.10375 8.18018 10.6038 8.18018C11.4638 8.18018 12.3238 8.38018 13.0938 8.77018C13.8838 9.18018 14.5338 9.74018 15.0638 10.4502C15.2538 10.7102 15.3437 11.0402 15.2937 11.3602C15.2437 11.6802 15.0638 11.9702 14.8038 12.1602L13.6038 13.0302C13.3938 13.1802 13.1438 13.2602 12.8938 13.2602C12.8238 13.2602 12.7637 13.2502 12.6937 13.2402C12.3737 13.1902 12.0838 13.0102 11.8938 12.7502C11.7538 12.5502 11.5638 12.4002 11.3138 12.2602C11.0938 12.1402 10.8638 12.0902 10.6038 12.0902C10.0738 12.0902 9.70375 12.3502 9.48375 12.5702C9.26375 12.7902 9.00375 13.1602 9.00375 13.6902C9.00375 14.1202 9.16375 14.5002 9.48375 14.8202C9.79375 15.1302 10.1638 15.2902 10.6038 15.2902C10.8938 15.2902 11.1437 15.2302 11.3837 15.1002C11.6437 14.9602 11.8437 14.7902 12.0037 14.5602C12.1437 14.3702 12.3238 14.2302 12.5238 14.1402L12.5337 14.1302C12.6037 14.1002 12.6637 14.0802 12.7337 14.0702C12.8237 14.0502 12.9137 14.0402 12.9937 14.0402C13.2337 14.0402 13.4637 14.1102 13.6737 14.2502L14.8837 15.0702C15.4337 15.4502 15.5837 16.2002 15.2137 16.7502L15.2037 16.7602C14.6737 17.5402 13.9937 18.1402 13.1737 18.5602C12.4337 18.9802 11.5538 19.2002 10.6038 19.2002Z" fill="white"></path>
    <path d="M24.7366 19.2002C23.2466 19.2002 21.8966 18.6402 20.8366 17.5902C19.7766 16.5402 19.2266 15.1902 19.2266 13.6902C19.2266 12.2002 19.7866 10.8502 20.8366 9.79018C21.8866 8.73018 23.2366 8.18018 24.7366 8.18018C26.2266 8.18018 27.5766 8.74018 28.6366 9.79018C29.6966 10.8402 30.2466 12.1902 30.2466 13.6902C30.2466 15.1802 29.6866 16.5302 28.6366 17.5902C27.5866 18.6502 26.2366 19.2002 24.7366 19.2002ZM24.7366 12.0902C24.2066 12.0902 23.8366 12.3502 23.6166 12.5702C23.3966 12.7902 23.1366 13.1602 23.1366 13.6802C23.1366 14.1102 23.2966 14.4902 23.6166 14.8102C23.9166 15.1102 24.3166 15.2802 24.7366 15.2802C25.1766 15.2802 25.5566 15.1202 25.8666 14.8102C26.1766 14.5002 26.3366 14.1202 26.3366 13.6802C26.3366 13.2702 26.1666 12.8602 25.8666 12.5602C25.5566 12.2502 25.1766 12.0902 24.7366 12.0902Z" fill="white"></path>
    <path d="M38.5969 19.0099C38.2369 19.0099 37.8969 18.8499 37.6669 18.5799C37.4469 18.8399 37.1069 19.0099 36.7369 19.0099H35.2669C34.5969 19.0099 34.0469 18.4599 34.0469 17.7899V9.65994C34.0469 8.98994 34.5969 8.43994 35.2669 8.43994H36.7369C36.7969 8.43994 36.8669 8.44994 36.9269 8.44994H37.4269C38.4869 8.44994 39.4769 8.85994 40.1969 9.59994C40.9469 10.3899 41.3369 11.3399 41.3369 12.3399C41.3369 13.3999 40.9069 14.4199 40.1569 15.1199C40.1569 15.1199 40.1569 15.1199 40.1469 15.1299L41.3569 17.1699C41.5769 17.5499 41.5869 18.0199 41.3669 18.3999C41.1469 18.7799 40.7469 19.0199 40.3069 19.0199H38.5969V19.0099Z" fill="white"></path>
    <path d="M46.3997 19.0099C45.7297 19.0099 45.1797 18.4599 45.1797 17.7899V9.65994C45.1797 8.98994 45.7297 8.43994 46.3997 8.43994H47.8697C47.9297 8.43994 47.9997 8.44994 48.0597 8.44994H48.5697C49.6297 8.44994 50.6197 8.85994 51.3397 9.59994C52.0897 10.3899 52.4797 11.3399 52.4797 12.3399C52.4797 13.3899 52.0797 14.3399 51.3297 15.0999C50.6997 15.7299 49.9397 16.1099 49.0997 16.2199V17.7899C49.0997 18.4599 48.5497 19.0099 47.8797 19.0099H46.3997Z" fill="white"></path>
    <path d="M61.6194 19.2002C60.1294 19.2002 58.7794 18.6402 57.7194 17.5902C56.6594 16.5402 56.1094 15.1902 56.1094 13.6902C56.1094 12.2002 56.6694 10.8502 57.7194 9.79018C58.7794 8.73018 60.1194 8.18018 61.6194 8.18018C63.1094 8.18018 64.4594 8.74018 65.5194 9.79018C66.5794 10.8502 67.1294 12.1902 67.1294 13.6902C67.1294 15.1802 66.5694 16.5302 65.5194 17.5902C64.4594 18.6402 63.1094 19.2002 61.6194 19.2002ZM61.6194 12.0902C61.0894 12.0902 60.7194 12.3502 60.4994 12.5702C60.2794 12.7902 60.0194 13.1602 60.0194 13.6902C60.0194 14.1202 60.1794 14.5002 60.4994 14.8202C60.7994 15.1202 61.1994 15.2902 61.6194 15.2902C62.0594 15.2902 62.4394 15.1302 62.7494 14.8202C63.0594 14.5102 63.2194 14.1302 63.2194 13.6902C63.2194 13.2802 63.0494 12.8702 62.7494 12.5702C62.4294 12.2502 62.0494 12.0902 61.6194 12.0902Z" fill="white"></path>
    <path d="M75.4719 19.0099C75.1119 19.0099 74.7719 18.8499 74.5419 18.5799C74.3219 18.8399 73.9819 19.0099 73.6119 19.0099H72.1419C71.4719 19.0099 70.9219 18.4599 70.9219 17.7899V9.65994C70.9219 8.98994 71.4719 8.43994 72.1419 8.43994H73.6119C73.6719 8.43994 73.7419 8.44994 73.8019 8.44994H74.3019C75.3619 8.44994 76.3519 8.85994 77.0719 9.59994C77.8219 10.3899 78.2119 11.3399 78.2119 12.3399C78.2119 13.3999 77.7819 14.4199 77.0319 15.1199C77.0319 15.1199 77.0319 15.1199 77.0219 15.1299L78.2319 17.1699C78.4519 17.5499 78.4619 18.0199 78.2419 18.3999C78.0219 18.7799 77.6219 19.0199 77.1819 19.0199H75.4719V19.0099Z" fill="white"></path>
    <path d="M89.657 19.0102C89.187 19.0102 88.767 18.7502 88.557 18.3302L87.987 17.1602H86.667L86.127 18.3102C85.927 18.7402 85.497 19.0102 85.027 19.0102H83.397C82.977 19.0102 82.587 18.8002 82.367 18.4402C82.147 18.0902 82.117 17.6402 82.297 17.2702L85.487 10.5102L86.157 9.11016C86.357 8.69016 86.787 8.42016 87.247 8.41016H87.257C87.727 8.41016 88.147 8.67016 88.357 9.09016L89.037 10.4802L92.367 17.2502C92.557 17.6302 92.527 18.0802 92.307 18.4302C92.087 18.7902 91.687 19.0102 91.267 19.0102H89.657Z" fill="white"></path>
    <path d="M101.643 19.2002C100.153 19.2002 98.8028 18.6402 97.7428 17.5902C96.6828 16.5402 96.1328 15.1902 96.1328 13.6902C96.1328 12.2002 96.6928 10.8502 97.7428 9.79018C98.8028 8.73018 100.143 8.18018 101.643 8.18018C102.503 8.18018 103.363 8.38018 104.133 8.77018C104.923 9.18018 105.573 9.74018 106.093 10.4502C106.293 10.7102 106.373 11.0402 106.323 11.3602C106.273 11.6802 106.093 11.9702 105.833 12.1602L104.633 13.0302C104.423 13.1802 104.173 13.2602 103.923 13.2602C103.853 13.2602 103.793 13.2502 103.723 13.2402C103.403 13.1902 103.123 13.0102 102.933 12.7502C102.793 12.5502 102.603 12.4002 102.353 12.2602C102.133 12.1402 101.903 12.0902 101.643 12.0902C101.113 12.0902 100.743 12.3502 100.523 12.5702C100.303 12.7902 100.043 13.1602 100.043 13.6902C100.043 14.1202 100.203 14.5002 100.523 14.8202C100.833 15.1302 101.203 15.2902 101.643 15.2902C101.933 15.2902 102.193 15.2302 102.423 15.1002C102.683 14.9702 102.883 14.7902 103.043 14.5602C103.173 14.3702 103.363 14.2302 103.563 14.1402L103.573 14.1302C103.643 14.1002 103.703 14.0802 103.773 14.0702C103.863 14.0502 103.953 14.0402 104.033 14.0402C104.273 14.0402 104.503 14.1102 104.713 14.2502L105.923 15.0702C106.193 15.2502 106.363 15.5302 106.433 15.8302L106.443 15.8702C106.493 16.1702 106.433 16.4802 106.253 16.7502L106.243 16.7602C105.713 17.5402 105.033 18.1402 104.213 18.5602C103.473 18.9802 102.593 19.2002 101.643 19.2002Z" fill="white"></path>
    <path d="M111.501 19.0099C110.831 19.0099 110.281 18.4599 110.281 17.7899V9.65994C110.281 8.98994 110.831 8.43994 111.501 8.43994H112.971C113.641 8.43994 114.191 8.98994 114.191 9.65994V17.7899C114.191 18.4599 113.641 19.0099 112.971 19.0099H111.501Z" fill="white"></path>
    <path d="M123.541 19.1999C122.051 19.1999 120.701 18.6399 119.641 17.5899C118.581 16.5399 118.031 15.1899 118.031 13.6899C118.031 12.1999 118.591 10.8499 119.641 9.7899C120.211 9.2199 120.871 8.7899 121.591 8.5199C121.511 8.0299 121.741 7.5299 122.191 7.2699L124.291 6.0599C124.321 6.0399 124.361 6.0199 124.391 6.0099C124.401 6.0099 124.421 5.9999 124.421 5.9999C124.581 5.9299 124.751 5.8999 124.911 5.8999C125.051 5.8999 125.191 5.9199 125.321 5.9699L125.371 5.9899C125.651 6.0999 125.881 6.3199 126.021 6.6099L126.501 7.6499C126.641 7.9499 126.641 8.2699 126.541 8.5599L126.531 8.5999C126.481 8.7199 126.421 8.8399 126.331 8.9399C126.731 9.1799 127.091 9.4599 127.431 9.7999C128.491 10.8599 129.041 12.1999 129.041 13.6999C129.041 15.1899 128.481 16.5399 127.431 17.5999C126.381 18.6599 125.031 19.1999 123.541 19.1999ZM123.541 12.0899C123.011 12.0899 122.641 12.3499 122.421 12.5699C122.201 12.7899 121.941 13.1599 121.941 13.6799C121.941 14.1099 122.101 14.4899 122.421 14.8099C122.721 15.1099 123.121 15.2799 123.541 15.2799C123.981 15.2799 124.361 15.1199 124.671 14.8099C124.981 14.4999 125.141 14.1199 125.141 13.6799C125.141 13.2699 124.971 12.8599 124.671 12.5599C124.351 12.2499 123.971 12.0899 123.541 12.0899Z" fill="white"></path>
    <path d="M139.858 18.9802C139.528 18.9802 139.208 18.8502 138.978 18.6002L137.688 17.2602L136.738 16.2902V17.7502C136.738 18.4202 136.188 18.9702 135.518 18.9702H134.048C133.378 18.9702 132.828 18.4202 132.828 17.7502V9.6702C132.828 9.1702 133.128 8.7202 133.598 8.5402C133.748 8.4802 133.898 8.4502 134.048 8.4502C134.378 8.4502 134.698 8.5802 134.928 8.8302L136.208 10.1702L137.158 11.1402V9.6702C137.158 9.0002 137.708 8.4502 138.378 8.4502H139.848C140.518 8.4502 141.068 9.0002 141.068 9.6702V17.7602C141.068 18.2602 140.768 18.7102 140.298 18.8902C140.168 18.9502 140.018 18.9802 139.858 18.9802Z" fill="white"></path>
    <path d="M14.2125 16.0499C13.8125 16.6399 13.2925 17.1199 12.6425 17.4499C12.0225 17.7799 11.3425 17.9399 10.6025 17.9399C9.4025 17.9399 8.3625 17.4799 7.5725 16.6799C6.7825 15.8799 6.3125 14.8499 6.3125 13.6499C6.3125 12.4499 6.7725 11.4099 7.5725 10.6199C8.3725 9.82986 9.4125 9.35986 10.6025 9.35986C11.3125 9.35986 11.9725 9.52986 12.5525 9.81986C13.1625 10.1399 13.6625 10.5699 14.0825 11.1299L12.8825 11.9999C12.6225 11.6399 12.2925 11.3599 11.8825 11.1499C11.4825 10.9299 11.0425 10.8299 10.5925 10.8299C9.8325 10.8299 9.1325 11.1499 8.6125 11.6699C8.0925 12.1899 7.7725 12.8799 7.7725 13.6499C7.7725 14.4399 8.0925 15.1199 8.6125 15.6399C9.1225 16.1499 9.7925 16.4599 10.5925 16.4599C11.1025 16.4599 11.5425 16.3499 11.9525 16.1299C12.3725 15.9099 12.7225 15.6099 12.9925 15.2199L14.2125 16.0499Z" fill="#58973F"></path>
    <path d="M27.7809 10.6199C28.5709 11.4099 29.0409 12.4499 29.0409 13.6499C29.0409 14.8499 28.5809 15.8899 27.7809 16.6799C26.9909 17.4699 25.9509 17.9399 24.7509 17.9399C23.5509 17.9399 22.5109 17.4799 21.7209 16.6799C20.9309 15.8899 20.4609 14.8499 20.4609 13.6499C20.4609 12.4499 20.9209 11.4099 21.7209 10.6199C22.5109 9.82986 23.5509 9.35986 24.7509 9.35986C25.9409 9.35986 26.9809 9.81986 27.7809 10.6199ZM24.7409 10.8399C23.9709 10.8399 23.2809 11.1599 22.7609 11.6799C22.2409 12.1999 21.9209 12.8899 21.9209 13.6599C21.9209 14.4599 22.2409 15.1299 22.7609 15.6499C23.2709 16.1499 23.9709 16.4699 24.7409 16.4699C25.5309 16.4699 26.2109 16.1699 26.7309 15.6499C27.2509 15.1299 27.5509 14.4499 27.5509 13.6599C27.5509 12.8999 27.2309 12.1899 26.7309 11.6799C26.2209 11.1499 25.5409 10.8399 24.7409 10.8399Z" fill="#58973F"></path>
    <path d="M40.3078 17.7501H38.5978L36.9478 15.0001H36.7278V17.7601H35.2578V9.62012H36.7278V9.63012H37.4178C38.1578 9.63012 38.8178 9.90012 39.3078 10.4101C39.7978 10.9301 40.0978 11.5701 40.0978 12.3001C40.0978 13.0401 39.8078 13.7201 39.3078 14.1901C39.0578 14.4401 38.7978 14.6101 38.5178 14.7401L40.3078 17.7501ZM36.7278 13.5101H37.4178C37.7478 13.5101 38.0378 13.3901 38.2678 13.1601C38.4978 12.9301 38.6178 12.6401 38.6178 12.3101C38.6178 11.9901 38.4978 11.7001 38.2678 11.4601C38.0378 11.2301 37.7478 11.1101 37.4178 11.1101H36.7278V13.5101Z" fill="#58973F"></path>
    <path d="M47.8684 9.62012V9.63012H48.5584C49.2984 9.63012 49.9584 9.90012 50.4484 10.4101C50.9384 10.9301 51.2384 11.5601 51.2384 12.3001C51.2384 13.0401 50.9484 13.6901 50.4484 14.1901C49.9384 14.7001 49.2884 14.9801 48.5584 14.9801H47.8684V17.7401H46.3984V9.62012H47.8684ZM47.8684 11.1101V13.5101H48.5584C48.8884 13.5101 49.1784 13.3901 49.4084 13.1601C49.6384 12.9301 49.7584 12.6401 49.7584 12.3101C49.7584 11.9901 49.6384 11.7001 49.4084 11.4601C49.1784 11.2301 48.8884 11.1101 48.5584 11.1101H47.8684Z" fill="#58973F"></path>
    <path d="M64.6481 10.6199C65.4381 11.4099 65.9081 12.4499 65.9081 13.6499C65.9081 14.8499 65.4481 15.8899 64.6481 16.6799C63.8581 17.4699 62.8181 17.9399 61.6181 17.9399C60.4181 17.9399 59.3781 17.4799 58.5881 16.6799C57.7981 15.8899 57.3281 14.8499 57.3281 13.6499C57.3281 12.4499 57.7881 11.4099 58.5881 10.6199C59.3781 9.82986 60.4181 9.35986 61.6181 9.35986C62.8181 9.35986 63.8581 9.81986 64.6481 10.6199ZM61.6181 10.8399C60.8481 10.8399 60.1581 11.1599 59.6381 11.6799C59.1181 12.1999 58.7981 12.8899 58.7981 13.6599C58.7981 14.4599 59.1181 15.1299 59.6381 15.6499C60.1481 16.1499 60.8481 16.4699 61.6181 16.4699C62.4081 16.4699 63.0881 16.1699 63.6081 15.6499C64.1281 15.1299 64.4281 14.4499 64.4281 13.6599C64.4281 12.8999 64.1081 12.1899 63.6081 11.6799C63.0881 11.1499 62.4081 10.8399 61.6181 10.8399Z" fill="#58973F"></path>
    <path d="M77.1906 17.7501H75.4706L73.8306 15.0001H73.6106V17.7601H72.1406V9.62012H73.6106V9.63012H74.3006C75.0406 9.63012 75.7006 9.90012 76.1906 10.4101C76.6806 10.9301 76.9806 11.5701 76.9806 12.3001C76.9806 13.0401 76.6906 13.7201 76.1906 14.1901C75.9506 14.4401 75.6806 14.6101 75.4006 14.7401L77.1906 17.7501ZM73.6106 13.5101H74.3006C74.6306 13.5101 74.9206 13.3901 75.1506 13.1601C75.3806 12.9301 75.5006 12.6401 75.5006 12.3101C75.5006 11.9901 75.3806 11.7001 75.1506 11.4601C74.9206 11.2301 74.6306 11.1101 74.3006 11.1101H73.6106V13.5101Z" fill="#58973F"></path>
    <path d="M88.7484 15.9101H85.8884L85.0184 17.7601H83.3984L86.5884 11.0001L87.2484 9.6001L87.9284 10.9901L91.2684 17.7601H89.6484L88.7484 15.9101ZM86.5484 14.5201H88.0484L87.2884 12.9501L86.5484 14.5201Z" fill="#58973F"></path>
    <path d="M105.252 16.0499C104.852 16.6399 104.332 17.1199 103.682 17.4499C103.062 17.7799 102.382 17.9399 101.642 17.9399C100.442 17.9399 99.4016 17.4799 98.6116 16.6799C97.8216 15.8799 97.3516 14.8499 97.3516 13.6499C97.3516 12.4499 97.8116 11.4099 98.6116 10.6199C99.4116 9.82986 100.452 9.35986 101.642 9.35986C102.352 9.35986 103.012 9.52986 103.592 9.81986C104.202 10.1399 104.702 10.5699 105.122 11.1299L103.922 11.9999C103.662 11.6399 103.332 11.3599 102.922 11.1499C102.522 10.9299 102.082 10.8299 101.632 10.8299C100.872 10.8299 100.172 11.1499 99.6516 11.6699C99.1316 12.1899 98.8116 12.8799 98.8116 13.6499C98.8116 14.4399 99.1316 15.1199 99.6516 15.6399C100.162 16.1499 100.832 16.4599 101.632 16.4599C102.142 16.4599 102.582 16.3499 102.992 16.1299C103.412 15.9099 103.762 15.6099 104.032 15.2199L105.252 16.0499Z" fill="#58973F"></path>
    <path d="M112.97 17.7501H111.5V9.62012H112.97V17.7501Z" fill="#58973F"></path>
    <path d="M123.54 9.36008C124.74 9.36008 125.78 9.82008 126.57 10.6201C127.36 11.4101 127.83 12.4501 127.83 13.6501C127.83 14.8501 127.37 15.8901 126.57 16.6801C125.78 17.4701 124.74 17.9401 123.54 17.9401C122.34 17.9401 121.3 17.4801 120.51 16.6801C119.72 15.8901 119.25 14.8501 119.25 13.6501C119.25 12.4501 119.71 11.4101 120.51 10.6201C121.3 9.82008 122.34 9.36008 123.54 9.36008ZM125.53 11.6701C125.01 11.1501 124.33 10.8301 123.54 10.8301C122.77 10.8301 122.08 11.1501 121.56 11.6701C121.04 12.1901 120.72 12.8801 120.72 13.6501C120.72 14.4401 121.04 15.1201 121.56 15.6401C122.07 16.1501 122.77 16.4601 123.54 16.4601C124.33 16.4601 125.01 16.1601 125.53 15.6401C126.05 15.1201 126.35 14.4401 126.35 13.6501C126.36 12.8901 126.04 12.1801 125.53 11.6701ZM125.39 8.12008L123.11 8.97008L122.81 8.29008L124.92 7.08008L125.39 8.12008Z" fill="#58973F"></path>
    <path d="M139.857 9.64014V15.9201V17.7201L138.567 16.3801L135.517 13.2501V17.7101H134.047V11.4401V9.64014L135.337 10.9801L138.387 14.1101V9.64014H139.857Z" fill="#58973F"></path>
    <path d="M226.282 40.6398C226.152 36.3298 224.272 32.8798 220.862 30.6498C218.042 28.8098 214.312 27.9098 209.442 27.9098C205.192 27.9098 201.672 28.8698 198.992 30.7498C198.092 31.3798 197.302 32.1098 196.602 32.9298C196.432 32.7398 196.262 32.5598 196.082 32.3798C193.132 29.4098 188.932 27.8998 183.592 27.8998C179.352 27.8998 175.802 28.8998 173.052 30.7798V29.3998C173.102 26.1898 171.822 24.1798 170.732 23.0698C169.632 21.9398 167.632 20.5998 164.352 20.5998H160.822C158.562 20.5998 156.622 21.9898 155.812 23.9598C154.202 21.9298 151.752 20.5998 149.052 20.5998H145.522C142.532 20.5998 140.102 23.0298 140.102 26.0198V30.2898C137.362 28.6998 133.822 27.9098 129.302 27.9098C125.422 27.9098 122.162 28.7198 119.582 30.2898V29.3398C119.582 24.5198 115.682 20.5898 110.882 20.5898H107.352C104.362 20.5898 101.932 23.0198 101.932 26.0098V30.8898C99.1222 28.9298 95.5322 27.8998 91.2322 27.8998C86.7822 27.8998 83.0822 29.0198 80.2322 31.1298C79.3122 29.4498 77.5222 28.3098 75.4722 28.3098H74.5022C67.6522 28.3098 62.4222 30.4898 59.1322 34.5298C56.1322 30.4298 51.0922 28.2098 44.3622 28.2098C44.3622 28.2098 44.1222 28.2098 44.1022 28.2098C38.5222 28.3098 34.1122 30.0398 31.0622 33.1798C30.2822 32.2098 29.3522 31.3598 28.2422 30.6398C25.4222 28.7998 21.6922 27.8998 16.8222 27.8998C12.5722 27.8998 9.05219 28.8598 6.37219 30.7398C3.41219 32.8198 1.52219 35.9898 0.872187 39.9198C0.612188 41.4898 1.06219 43.0898 2.09219 44.3098C2.22219 44.4598 2.35219 44.5998 2.49219 44.7298C1.04219 46.6798 0.0721875 49.2698 -0.0078125 52.6998C-0.0078125 52.7398 -0.0078125 52.7798 -0.0078125 52.8298C-0.0078125 57.0698 1.61219 60.7898 4.54219 63.3098C7.21219 65.5998 10.8422 66.8098 15.0322 66.8098C15.6222 66.8098 16.2322 66.7898 16.8022 66.7398C20.8622 66.4598 24.2622 65.3998 26.9222 63.6698C26.9322 64.1098 26.9922 64.5398 27.1122 64.9698C29.3522 73.0798 35.3422 77.5398 43.9522 77.5398C43.9822 77.5398 44.0122 77.5398 44.0522 77.5398C56.3322 77.3198 60.4522 71.2398 61.7622 66.2298H67.4922C70.4822 66.2298 72.9122 63.7998 72.9122 60.8098V46.7398C72.9122 46.5298 72.9222 46.3698 72.9322 46.2298C73.0022 46.2298 73.0822 46.2198 73.1722 46.2198H73.5522C73.5422 46.6098 73.5322 46.9998 73.5322 47.3998C73.5322 64.9498 85.9122 66.8498 91.2322 66.8498C95.8622 66.8498 99.6822 65.6498 102.582 63.3898C103.502 65.0798 105.292 66.2398 107.352 66.2398H114.162C115.832 66.2398 117.332 65.4798 118.322 64.2898C120.822 65.9398 123.962 66.8098 127.502 66.8098C128.092 66.8098 128.702 66.7898 129.272 66.7398C134.622 66.3598 138.832 64.6598 141.712 61.8098C143.382 64.3598 146.092 65.5898 148.722 65.8498C150.222 65.9998 151.722 66.0798 153.182 66.0798C154.452 66.0798 155.712 66.0198 156.932 65.9098C157.402 65.8698 157.852 65.7598 158.282 65.5998C159.042 65.9998 159.912 66.2398 160.832 66.2398H167.642C168.412 66.2398 169.152 66.0698 169.812 65.7798C170.482 66.0698 171.212 66.2398 171.992 66.2398H178.902C181.372 66.2398 183.462 64.5898 184.112 62.3198C185.532 64.5798 188.022 65.9998 191.222 66.2198C191.342 66.2298 191.472 66.2298 191.592 66.2298H195.072C196.592 66.2298 197.972 65.5998 198.962 64.5798C201.382 66.0298 204.342 66.7898 207.662 66.7898C208.252 66.7898 208.862 66.7698 209.432 66.7198C220.152 65.9698 226.302 59.8798 226.302 49.9998V40.7898C226.292 40.7498 226.282 40.6998 226.282 40.6398Z" fill="white"></path>
    <path d="M12.7238 40.1101H5.91375C6.73375 35.0901 10.2638 32.6401 16.5037 32.6401C23.9737 32.6401 27.7637 35.1001 27.9137 40.1101V49.3201C27.9137 56.7901 23.4138 60.1201 16.0938 60.6301C9.59375 61.1401 5.09375 58.1201 5.09375 52.1401C5.24375 45.6401 9.95375 43.9001 16.8137 43.2401C19.7337 42.8801 21.2137 42.0101 21.2137 40.5301C21.0637 38.9901 19.6237 38.2301 16.8137 38.2301C14.4137 38.2101 13.0838 38.8301 12.7238 40.1101ZM21.3237 49.0101V46.5001C19.7337 47.1701 17.8938 47.7301 15.8938 48.1401C13.1838 48.6501 11.8038 49.9301 11.8038 51.9301C11.9538 54.0801 13.0837 55.1001 15.2337 55.1001C19.0137 55.1001 21.3237 52.8501 21.3237 49.0101Z" fill="#58973F"></path>
    <path d="M31.2891 46.6102C31.2891 37.6002 35.4891 33.1002 43.8791 32.9502C52.3191 32.9002 56.5691 36.8902 56.5691 45.0302V61.0502C56.5691 67.8602 52.2691 71.2902 43.6191 71.4402C37.4791 71.4402 33.5891 68.5702 31.9991 62.8402H39.5191C39.9791 64.7802 41.5691 65.7102 44.3791 65.7102C47.9591 65.7102 49.8091 63.6102 49.8091 59.4202V56.6602C48.0691 59.3202 45.4591 60.6502 42.0791 60.6502C34.8791 60.6302 31.2891 55.9202 31.2891 46.6102ZM49.8191 46.8102C49.8691 41.3302 47.9791 38.6202 44.0891 38.6202C40.1991 38.6202 38.3091 41.3302 38.3091 46.8102C38.4591 52.0302 40.2991 54.6402 43.9891 54.6402C47.6691 54.6402 49.6191 52.0302 49.8191 46.8102Z" fill="#58973F"></path>
    <path d="M60.2578 46.1498C60.4578 37.3998 65.1178 33.0498 74.1778 33.0498H75.1478V40.1098H72.8478C69.0578 40.1098 67.1678 42.0998 67.1678 46.0498V60.1198H60.2578V46.1498Z" fill="#58973F"></path>
    <path d="M103.251 46.7101C103.251 56.0201 99.1006 60.7301 90.9206 60.7301C82.7306 60.7301 78.6406 56.0201 78.6406 46.7101C78.6406 37.2901 82.7306 32.6401 90.9206 32.6401C99.1006 32.6401 103.251 37.2901 103.251 46.7101ZM85.5406 46.7101C85.5906 51.9801 87.3806 54.6401 90.8606 54.6401C94.3406 54.6401 96.0806 51.8801 96.1306 46.5001C96.1306 41.2301 94.3906 38.6201 90.9106 38.6201C87.3306 38.6201 85.5406 41.3401 85.5406 46.7101Z" fill="#58973F"></path>
    <path d="M113.841 28.6401V60.1101H107.031V25.3101H110.561C112.351 25.3201 113.841 26.8501 113.841 28.6401Z" fill="#58973F"></path>
    <path d="M125.2 40.1101H118.39C119.21 35.0901 122.74 32.6401 128.98 32.6401C136.45 32.6401 140.24 35.1001 140.39 40.1101V49.3201C140.39 56.7901 135.89 60.1201 128.57 60.6301C122.07 61.1401 117.57 58.1201 117.57 52.1401C117.72 45.6401 122.43 43.9001 129.29 43.2401C132.21 42.8801 133.69 42.0101 133.69 40.5301C133.54 38.9901 132.1 38.2301 129.29 38.2301C126.89 38.2101 125.56 38.8301 125.2 40.1101ZM133.8 49.0101V46.5001C132.21 47.1701 130.37 47.7301 128.38 48.1401C125.67 48.6501 124.29 49.9301 124.29 51.9301C124.44 54.0801 125.57 55.1001 127.72 55.1001C131.49 55.1001 133.8 52.8501 133.8 49.0101Z" fill="#58973F"></path>
    <path d="M152.732 37.9098H152.012V52.8998C152.012 54.0298 152.682 54.6398 154.012 54.6398H156.112V59.8098C153.912 60.0198 151.502 60.0198 148.952 59.7598C146.392 59.4998 145.162 57.9198 145.212 54.8998V25.3198H148.742C150.532 25.3198 152.012 26.9598 152.012 28.7498V33.0498H156.112V34.5298C156.112 36.4698 154.622 37.9098 152.732 37.9098Z" fill="#58973F"></path>
    <path d="M164.04 25.3198C166.29 25.3198 167.37 26.4498 167.31 28.6498V30.6498H160.5V25.3298H164.04V25.3198ZM164.04 33.0398C166.24 33.0398 167.31 34.1198 167.31 36.3198V60.1198H160.5V33.0398H164.04Z" fill="#58973F"></path>
    <path d="M191.256 60.1201C189.006 59.9701 187.876 58.8901 187.876 56.7401V42.8201C187.726 40.0001 186.186 38.6201 183.166 38.6201C180.146 38.6201 178.616 40.0001 178.566 42.8201V60.1201H171.656V44.2001C171.656 36.4701 175.546 32.6401 183.276 32.6401C191.006 32.6401 194.786 36.4801 194.736 44.2001V60.1201H191.256Z" fill="#58973F"></path>
    <path d="M205.333 40.1101H198.523C199.343 35.0901 202.873 32.6401 209.113 32.6401C216.583 32.6401 220.373 35.1001 220.523 40.1101V49.3201C220.523 56.7901 216.023 60.1201 208.703 60.6301C202.203 61.1401 197.703 58.1201 197.703 52.1401C197.853 45.6401 202.563 43.9001 209.423 43.2401C212.343 42.8801 213.823 42.0101 213.823 40.5301C213.673 38.9901 212.233 38.2301 209.423 38.2301C207.023 38.2101 205.693 38.8301 205.333 40.1101ZM213.933 49.0101V46.5001C212.343 47.1701 210.503 47.7301 208.513 48.1401C205.803 48.6501 204.423 49.9301 204.423 51.9301C204.573 54.0801 205.703 55.1001 207.853 55.1001C211.633 55.1001 213.933 52.8501 213.933 49.0101Z" fill="#58973F"></path>
  </g>
  <defs>
    <linearGradient id="paint0_linear_617_6897" x1="263.807" y1="7.3999" x2="263.807" y2="65.2399" gradientUnits="userSpaceOnUse">
      <stop stop-color="#FAFBF5"></stop>
      <stop offset="0.659132" stop-color="#B7C765"></stop>
      <stop offset="1" stop-color="#ABBD4B"></stop>
    </linearGradient>
    <linearGradient id="paint1_linear_617_6897" x1="249.643" y1="0.0297852" x2="249.643" y2="57.8698" gradientUnits="userSpaceOnUse">
      <stop stop-color="#F6FAF5"></stop>
      <stop offset="0.620796" stop-color="#85B372"></stop>
      <stop offset="1" stop-color="#629D4A"></stop>
    </linearGradient>
    <clipPath id="clip0_617_6897">
      <rect width="297.32" height="77.55" fill="white"></rect>
    </clipPath>
  </defs>
</svg>
